<?xml version="1.0" encoding="UTF-8" standalone="no"?>
<!-- Created with Inkscape (http://www.inkscape.org/) -->

<svg
   xmlns:dc="http://purl.org/dc/elements/1.1/"
   xmlns:cc="http://creativecommons.org/ns#"
   xmlns:rdf="http://www.w3.org/1999/02/22-rdf-syntax-ns#"
   xmlns:svg="http://www.w3.org/2000/svg"
   xmlns="http://www.w3.org/2000/svg"
   xmlns:sodipodi="http://sodipodi.sourceforge.net/DTD/sodipodi-0.dtd"
   xmlns:inkscape="http://www.inkscape.org/namespaces/inkscape"
   width="210mm"
   height="297mm"
   viewBox="0 0 210 297"
   version="1.1"
   id="svg8"
   inkscape:version="0.92.4 (5da689c313, 2019-01-14)"
   sodipodi:docname="toastsuba-2.svg"
   inkscape:export-filename="E:\GitHub\tosuto\.github\toastsuba-2.png"
   inkscape:export-xdpi="96"
   inkscape:export-ydpi="96">
  <defs
     id="defs2" />
  <sodipodi:namedview
     id="base"
     pagecolor="#ffffff"
     bordercolor="#666666"
     borderopacity="1.0"
     inkscape:pageopacity="0.0"
     inkscape:pageshadow="2"
     inkscape:zoom="1.979899"
     inkscape:cx="215.14432"
     inkscape:cy="474.50727"
     inkscape:document-units="mm"
     inkscape:current-layer="layer1"
     showgrid="false"
     inkscape:window-width="2560"
     inkscape:window-height="1017"
     inkscape:window-x="1912"
     inkscape:window-y="-8"
     inkscape:window-maximized="1" />
  <metadata
     id="metadata5">
    <rdf:RDF>
      <cc:Work
         rdf:about="">
        <dc:format>image/svg+xml</dc:format>
        <dc:type
           rdf:resource="http://purl.org/dc/dcmitype/StillImage" />
        <dc:title></dc:title>
      </cc:Work>
    </rdf:RDF>
  </metadata>
  <g
     inkscape:label="Layer 1"
     inkscape:groupmode="layer"
     id="layer1">
    <path
       style="fill:#bebebe;fill-opacity:1;stroke:#000000;stroke-width:0.26458332px;stroke-linecap:butt;stroke-linejoin:miter;stroke-opacity:1"
       d="m 125.01562,185.96949 1.10219,0.0134 c 2.10352,-0.83686 4.25564,-1.46307 6.18062,-3.0736 -1.16977,-0.0713 -2.24512,0.42398 -3.52667,-0.31799 -2.37061,1.36526 -1.813,1.57912 -3.6645,2.87418 z"
       id="path2617"
       inkscape:connector-curvature="0"
       sodipodi:nodetypes="cccccc" />
    <path
       style="fill:#ffffff;stroke:#000000;stroke-width:0.26458332px;stroke-linecap:butt;stroke-linejoin:miter;stroke-opacity:1;fill-opacity:1"
       d="m 93.879836,155.25893 c -19.609119,22.69661 2.919972,38.30168 22.282184,33.26305 7.04522,0.56723 8.87192,-3.53047 12.60974,-5.93068 l 5.55153,-11.83535 -4.7247,-20.26897 -13.13468,-8.26823 -16.77269,3.59077 z"
       id="path2619"
       inkscape:connector-curvature="0"
       sodipodi:nodetypes="cccccccc" />
    <path
       style="fill:#bebebe;stroke:#000000;stroke-width:0.26458332px;stroke-linecap:butt;stroke-linejoin:miter;stroke-opacity:1;fill-opacity:1"
       d="m 126.11781,185.98292 c 0.0721,0.96282 0.40769,1.73073 1.10248,1.80407 l 1.4266,2.20775 c 2.46933,2.48898 4.63926,4.26402 5.95673,4.00626 v -3.20723 c 1.30676,0.8474 2.67102,1.26147 4.07585,1.36976 0.072,-1.42544 0.46002,-2.85088 -0.0334,-4.27632 1.80704,0.44174 3.19123,0.2794 4.37654,-0.16704 -1.32121,-3.24782 -3.50771,-5.49724 -5.98015,-7.41673 -1.36946,1.36126 -2.49946,2.46977 -4.74403,2.60588 -1.7779,1.48824 -4.23119,2.28506 -6.18062,3.0736 z"
       id="path851"
       inkscape:connector-curvature="0"
       sodipodi:nodetypes="ccccccccccc" />
    <path
       style="fill:#ffffff;stroke:#000000;stroke-width:0.26458332px;stroke-linecap:butt;stroke-linejoin:miter;stroke-opacity:1;fill-opacity:1"
       d="m 94.246839,203.49478 c -0.35014,6.13549 0.413214,11.96055 -0.367004,16.46895 l 41.171725,0.0456 -2.45185,-4.77818 c -0.24982,-2.06591 -1.198,-4.13638 -2.29242,-6.15783 -1.15719,0.13732 -2.21279,-0.51775 -3.2128,-1.6064 l -0.1063,-0.74415 c -1.28586,-1.26097 -3.00145,-1.11473 -3.79158,-4.92549 l -1.26385,-0.15356 0.29529,-1.85444 c -1.9514,-0.80099 -3.02327,-0.48795 -3.44903,-3.34273 -9.18381,4.91337 -17.73523,4.25499 -20.03274,-2.06706 -2.721417,2.27494 -3.771916,5.5942 -4.499441,9.11532 z"
       id="path841"
       inkscape:connector-curvature="0"
       sodipodi:nodetypes="ccccccccccccc" />
    <path
       style="fill:#000000;fill-opacity:1;stroke:#000000;stroke-width:0.26458332px;stroke-linecap:butt;stroke-linejoin:miter;stroke-opacity:1"
       d="m 98.982513,188.00111 3.481937,0.88836 c -0.87929,4.32807 -0.23431,6.25134 4.9445,6.48129 3.24512,-0.28163 7.93356,0.11174 11.65962,-4.40995 l 1.70385,2.53906 -1.9934,2.94668 c -2.60257,0.5821 -4.37289,2.09543 -6.97325,2.67381 -5.56775,1.23841 -11.46797,0.70538 -13.05949,-4.7409 z"
       id="path843"
       inkscape:connector-curvature="0"
       sodipodi:nodetypes="ccccccscc" />
    <path
       style="fill:#ffffff;fill-opacity:1;stroke:#000000;stroke-width:0.26458332px;stroke-linecap:butt;stroke-linejoin:miter;stroke-opacity:1"
       d="m 102.46445,188.88947 c 4.84137,1.11733 9.39063,0.92012 13.69757,-0.36749 1.23887,0.54741 2.38018,1.04504 2.90656,1.50339 l -1e-5,0.93544 c -2.5597,2.03924 -2.26345,4.01341 -11.65962,4.40995 -3.40766,0.0306 -6.19764,-0.70792 -4.9445,-6.48129"
       id="path845"
       inkscape:connector-curvature="0"
       sodipodi:nodetypes="cccccc" />
    <path
       style="fill:#bebebe;fill-opacity:1;stroke:#000000;stroke-width:0.26458332px;stroke-linecap:butt;stroke-linejoin:miter;stroke-opacity:1"
       d="m 140.18192,154.45573 c 4.82684,-0.55299 8.53103,1.04195 12.37872,2.36235 -0.517,1.07098 -1.04941,2.13356 -2.24424,2.83482 1.08713,0.50491 2.04195,1.19507 2.5041,2.57496 -1.21578,0.95493 -2.4777,1.35618 -3.75614,1.55915 1.07476,1.29295 0.88654,2.35002 1.35835,3.40179 -2.60728,0.15553 -5.24638,0.20149 -8.40997,-1.55915 z"
       id="path2720"
       inkscape:connector-curvature="0"
       sodipodi:nodetypes="cccccccc" />
    <path
       style="fill:#bebebe;fill-opacity:1;stroke:#000000;stroke-width:0.26458332px;stroke-linecap:butt;stroke-linejoin:miter;stroke-opacity:1"
       d="m 98.889725,144.0216 c 0.267082,-1.74642 -0.391228,-3.2547 -0.233862,-5.21176 1.037199,0.008 2.271897,0.51317 3.090307,1.00227 0.21931,-2.06265 0.76675,-3.02044 1.26953,-3.8253 1.42241,0.42949 2.76978,1.28618 3.65825,2.33861 0.45808,-0.99169 1.10671,-1.85908 2.05463,-2.53906 1.42257,0.64697 2.46953,1.9979 3.22394,3.75848 -4.46094,1.95046 -8.95745,3.45973 -13.062795,4.47676 z"
       id="path2718"
       inkscape:connector-curvature="0"
       sodipodi:nodetypes="cccccccc" />
    <path
       style="fill:#bebebe;fill-opacity:1;stroke:#000000;stroke-width:0.26458332px;stroke-linecap:butt;stroke-linejoin:miter;stroke-opacity:1"
       d="m 111.28435,144.89023 c -4.19202,3.22937 -8.1301,7.64381 -12.060539,12.09394 0.178314,-2.38501 0.971639,-5.22318 2.839739,-8.8533 -3.418721,3.70327 -6.599164,7.40653 -9.043945,11.1098 l 0.726596,-3.98174 -5.981571,8.67425 c -0.377516,-1.1952 0.06592,-3.0061 0.367496,-4.71062 l -1.369756,2.63928 c 2.039189,-6.13929 4.160622,-15.75487 19.10977,-21.18111 6.72116,-1.8406 13.75038,-1.97287 21.44839,1.60362 9.08383,4.00639 13.35616,10.83331 14.69982,19.37704 -0.0738,5.21062 0.39829,10.41802 -3.34104,15.71389 l -4.45625,-7.15387 -1.12283,2.06394 c -0.90888,-5.28912 -1.88407,-10.57201 -3.77518,-15.7689 -0.0213,3.39466 -0.4175,5.6403 -0.86863,7.71741 -6.67688,-14.08605 -7.0649,-13.9724 -9.15398,-17.47275 l -0.10023,10.12284 c -2.74216,-3.70643 -5.67303,-6.87819 -7.91786,-11.99372 z"
       id="path2706"
       inkscape:connector-curvature="0"
       sodipodi:nodetypes="ccccccccccccccccccc" />
    <path
       style="fill:#ffffff;fill-opacity:1;stroke:#000000;stroke-width:0.26458332px;stroke-linecap:butt;stroke-linejoin:miter;stroke-opacity:1"
       d="m 134.2585,170.35134 0.22996,0.37053 0.1183,0.22307 c 1.94891,-1.1574 3.52184,-0.0393 4.37036,1.53553 0.78097,3.24137 -0.4858,5.57264 -1.93466,7.82297 -0.98866,2.54684 -5.76661,2.78395 -5.76661,2.78395 -0.9638,0.16569 -1.91854,0.29284 -2.63554,-0.59037"
       id="path2854"
       inkscape:connector-curvature="0"
       sodipodi:nodetypes="ccccccc" />
    <path
       style="fill:#fffffa;fill-opacity:1;stroke:#000000;stroke-width:0.26458332px;stroke-linecap:butt;stroke-linejoin:miter;stroke-opacity:1"
       d="m 115.77782,156.83383 c 3.3228,-0.80165 5.95199,-0.23643 7.71741,1.85419 2.18261,3.74659 1.10165,6.25336 -2.23839,7.684 -3.34302,0.5957 -6.63243,1.01527 -8.75307,-2.40543 -0.49362,-0.98531 -0.97999,-6.0382 3.27405,-7.13276 z"
       id="path2680"
       inkscape:connector-curvature="0"
       sodipodi:nodetypes="ccccc" />
    <path
       style="fill:#000000;fill-opacity:1;stroke:#000000;stroke-width:0.19841586px;stroke-linecap:butt;stroke-linejoin:miter;stroke-opacity:1"
       d="m 116.23535,157.95019 c 2.49183,-0.60117 4.46351,-0.1773 5.78743,1.39049 1.63678,2.80964 0.82615,4.68951 -1.67861,5.76237 -2.50699,0.44673 -4.97378,0.76137 -6.56409,-1.80387 -0.37017,-0.7389 -0.73491,-4.52816 2.45527,-5.34899 z"
       id="path2680-2"
       inkscape:connector-curvature="0"
       sodipodi:nodetypes="ccccc" />
    <path
       style="fill:#000000;fill-opacity:1;stroke:#000000;stroke-width:0.26458332px;stroke-linecap:butt;stroke-linejoin:miter;stroke-opacity:1"
       d="m 72.158017,177.45321 c -1.711586,0.0511 -3.049512,0.30395 -4.736515,1.55915 -0.278661,0.86306 -0.236382,1.77962 -0.141742,2.7049 -0.545886,0.37928 -1.193913,0.76785 -1.07487,1.08668 0,0 0.641101,0.86318 0.484283,1.22842 -3.305545,7.45847 2.713268,11.45079 6.968937,10.81957 l 1.322917,1.88988 1.842632,-0.8032 c 2.355628,1.46402 5.203728,2.97477 13.559896,5.00819 l 3.863285,2.54798 c 0.564986,-3.78375 2.109252,-6.53353 4.49944,-9.11532 l 0.236233,-6.37835 c -2.494209,1.16836 -2.077063,0.88104 -2.456844,0.99219 -0.657345,0.0439 -0.67272,-0.74141 -0.992188,-1.13393 -1.084167,0.0338 -2.191235,0.96082 -3.289573,1.54734 -0.842702,-0.65666 -1.079281,-1.06104 -1.9076,-1.26386 0,0 -4.862643,-0.28888 -6.898066,-1.46465 -0.427181,-0.24676 -0.989565,-1.10052 -0.989565,-1.10052 0,0 -2.224108,0.28438 -3.049112,0.0209 -0.259124,-0.0828 -0.145673,-0.80295 -0.145673,-0.80295 l -1.0997,0.0332 c -0.600839,0.0181 1.031818,-1.78859 1.031818,-1.78859 0,0 -1.577621,-1.77629 -1.61103,-1.73453 l -1.837478,3.2741 c -0.549714,0.39381 -1.263947,1.74776 -2.459787,1.39293 -4.375515,-1.29828 -5.087795,-4.00843 -1.119698,-8.51947 z"
       id="path839"
       inkscape:connector-curvature="0"
       sodipodi:nodetypes="ccccccccccccccccscscscccscc" />
    <path
       style="fill:#00000c;fill-opacity:1;stroke:#000000;stroke-width:0.26458332px;stroke-linecap:butt;stroke-linejoin:miter;stroke-opacity:1"
       d="m 125.85054,187.98744 1.36975,-0.20045 c 0.80675,0.44076 1.4266,2.20775 1.4266,2.20775 0,0 1.90425,1.41613 2.04791,2.97059 0.82638,0.2331 1.53359,0.79393 2.00452,2.00453 0.28963,0.0724 5.56129,-0.64454 4.87767,10.42351 -0.10255,1.7083 -2.44567,2.95158 -7.2697,3.67995 -1.43659,0.13491 -2.29039,-0.79864 -3.2128,-1.6064 l -0.1063,-0.74415 c -1.81,-1.25632 -3.47276,-2.61658 -3.79158,-4.92549 l -1.26385,-0.15356 0.29529,-1.85444 c -1.2769,-0.63361 -2.90716,0.0677 -3.44903,-3.34273 l 1.9934,-2.94668 c 0.94266,3.52374 4.25363,1.30734 4.27631,1.26953 0.12037,0.10031 2.56417,-1.99304 2.17156,-4.30972 z"
       id="path847"
       inkscape:connector-curvature="0"
       sodipodi:nodetypes="ccccccccccccccccc" />
    <path
       style="fill:#ffffff;fill-opacity:1;stroke:#000000;stroke-width:0.26458332px;stroke-linecap:butt;stroke-linejoin:miter;stroke-opacity:1"
       d="m 125.04873,194.7694 c -2.49019,1.65309 -3.5517,0.52026 -4.27631,-1.26953 l -1.70385,-2.53906 1e-5,-0.93544 -2.90656,-1.50339 c -0.49856,-0.44373 -0.72133,-0.40485 -1.5368,-1.40317 -0.77005,-1.00106 -5.90689,-0.99423 -6.48129,-2.40542 -0.3184,-0.78227 5.47555,-0.33282 5.91334,-0.70159 0.45199,-0.38073 -1.99149,-2.16914 -3.57474,-3.34086 -0.95873,-0.70953 -0.94414,-1.72219 1.42912,-1.02945 1.60469,0.4684 3.70229,1.82816 4.21696,1.86466 0.99409,0.0705 -2.62846,-4.08843 -2.33861,-5.67948 0.2734,-1.50076 5.1098,3.81499 5.51243,4.04246 0.0599,0.0338 -1.70786,-5.62576 -0.53453,-5.54584 1.47368,0.10038 4.73355,7.35564 4.73355,7.35564 -0.47047,-0.17642 0.34696,-4.96457 2.50359,-4.28415 -0.14388,1.94408 -0.33142,4.38599 -0.77157,5.53959 0.15658,1.43004 -0.0748,2.40748 -0.4186,3.6499 l 2.40542,3.87541 c -0.054,1.80196 -0.19633,3.55572 -2.17156,4.30972 z"
       id="path849"
       inkscape:connector-curvature="0"
       sodipodi:nodetypes="ccccccsssssssscccccc" />
    <path
       style="fill:#ffffff;stroke:#000000;stroke-width:0.26458332px;stroke-linecap:butt;stroke-linejoin:miter;stroke-opacity:1;fill-opacity:1"
       d="m 108.57366,175.71689 c -0.94272,0.19347 -0.99877,0.65167 -1.31027,1.22387 -0.0246,0.51052 0.28047,0.60052 0.53786,0.63379 0.4807,-0.28826 0.0162,0.10681 1.21241,-0.60824 0.63953,-0.0156 0.45674,-0.93003 -0.44,-1.24942 z"
       id="path2623"
       inkscape:connector-curvature="0"
       sodipodi:nodetypes="ccccc" />
    <path
       style="fill:#ffffff;stroke:#000000;stroke-width:0.26458332px;stroke-linecap:butt;stroke-linejoin:miter;stroke-opacity:1;fill-opacity:1"
       d="m 104.76741,183.52767 c 0.0882,0.0212 0.21298,-0.0592 0.228,-0.14873 0.0141,-0.0842 -0.0731,-0.1868 -0.1571,-0.20226 -0.0775,-0.0143 -0.18228,0.0465 -0.20191,0.12274 -0.0219,0.085 0.0457,0.20775 0.13101,0.22825 z"
       id="path2625"
       inkscape:connector-curvature="0"
       sodipodi:nodetypes="aaaaa" />
    <path
       style="fill:#ffffff;fill-opacity:1;stroke:#000000;stroke-width:0.26458332px;stroke-linecap:butt;stroke-linejoin:miter;stroke-opacity:1"
       d="m 99.311809,184.93411 -0.24459,0.15987 c 0.05524,0.31148 0.214505,0.50406 0.42523,0.63784 0,0 0.39663,-0.25159 0.46984,-0.4529 0.0782,-0.21512 -0.0447,-0.7519 -0.0447,-0.7519 l -0.40019,-0.12647 c -0.34643,0.20742 -0.15531,0.13257 -0.20559,0.53356 z"
       id="path2631"
       inkscape:connector-curvature="0"
       sodipodi:nodetypes="ccccccc" />
    <path
       style="fill:#ffffff;stroke:#000000;stroke-width:0.26458332px;stroke-linecap:butt;stroke-linejoin:miter;stroke-opacity:1;fill-opacity:1"
       d="m 99.148642,179.49328 c 0.131344,-0.64312 0.321885,-1.25748 1.219418,-1.52845 0.64024,0.11635 0.87486,0.73972 1.07743,1.40317 0.23169,0.31429 0.19275,0.58991 0.11693,0.86027 -0.47902,0.38627 -0.85928,0.35281 -1.25283,0.37585 -0.632676,-0.002 -1.018265,-0.37411 -1.160948,-1.11084 z"
       id="path2642"
       inkscape:connector-curvature="0"
       sodipodi:nodetypes="cccccc" />
    <path
       style="fill:#ffffff;stroke:#000000;stroke-width:0.26458332px;stroke-linecap:butt;stroke-linejoin:miter;stroke-opacity:1;fill-opacity:1"
       d="m 101.67935,181.03843 c 0.0309,-0.23624 0.18,-0.25558 0.34244,-0.25056 0.15023,0.0604 0.36322,0.065 0.32573,0.29232 -0.0188,0.21185 -0.11404,0.36593 -0.30067,0.45102 -0.40652,-0.023 -0.54376,-0.16149 -0.71829,-0.28397 0.09,-0.15029 0.19445,-0.25745 0.35079,-0.20881 z"
       id="path2644"
       inkscape:connector-curvature="0"
       sodipodi:nodetypes="cccccc" />
    <path
       style="fill:#ffffff;fill-opacity:1;stroke:#000000;stroke-width:0.26458332px;stroke-linecap:butt;stroke-linejoin:miter;stroke-opacity:1"
       d="m 104.98681,181.58968 c -0.21314,3.8e-4 -0.28952,0.12043 -0.32574,0.27562 0.0338,0.12528 0.0467,0.25056 0.31739,0.37584 0.4803,-0.01 0.47303,-0.1917 0.60135,-0.32573 -0.0957,-0.21051 -0.23299,-0.37949 -0.593,-0.32573 z"
       id="path2646"
       inkscape:connector-curvature="0"
       sodipodi:nodetypes="ccccc" />
    <path
       style="fill:#ffffff;fill-opacity:1;stroke:#000000;stroke-width:0.26458332px;stroke-linecap:butt;stroke-linejoin:miter;stroke-opacity:1"
       d="m 93.059909,158.6212 c -1.63395,1.35855 -3.451543,4.02514 -2.314018,5.94007 2.039021,3.43252 7.725551,0.97566 9.305349,-1.49994 1.02268,-1.60258 1.29519,-4.53859 -0.198404,-5.73198 -1.800695,-1.43876 -5.020621,-0.18173 -6.792927,1.29185 z"
       id="path2650"
       inkscape:connector-curvature="0"
       sodipodi:nodetypes="assaa" />
    <path
       style="fill:#000000;fill-opacity:1;stroke:#000000;stroke-width:0.20712709px;stroke-linecap:butt;stroke-linejoin:miter;stroke-opacity:1"
       d="m 93.620964,159.24067 c -1.279125,1.06354 -2.702015,3.15106 -1.811512,4.65014 1.596233,2.68713 6.047893,0.76379 7.284624,-1.17421 0.800598,-1.25457 1.013934,-3.553 -0.15532,-4.48724 -1.409657,-1.12632 -3.930355,-0.14227 -5.317792,1.01131 z"
       id="path2650-2"
       inkscape:connector-curvature="0"
       sodipodi:nodetypes="assaa" />
    <path
       style="fill:none;stroke:#000000;stroke-width:0.26458332px;stroke-linecap:butt;stroke-linejoin:miter;stroke-opacity:1"
       d="m 88.132126,159.22256 c 1.190494,-2.54461 2.325853,-5.1941 4.276311,-7.31651"
       id="path2708"
       inkscape:connector-curvature="0"
       sodipodi:nodetypes="cc" />
    <path
       style="fill:none;stroke:#000000;stroke-width:0.26458332px;stroke-linecap:butt;stroke-linejoin:miter;stroke-opacity:1"
       d="m 93.746201,155.25893 c 2.856526,-6.7932 3.46284,-6.43486 4.575576,-7.99669"
       id="path2710"
       inkscape:connector-curvature="0"
       sodipodi:nodetypes="cc" />
    <path
       style="fill:none;stroke:#000000;stroke-width:0.26458332px;stroke-linecap:butt;stroke-linejoin:miter;stroke-opacity:1"
       d="m 102.06355,148.13087 c 0.55496,-0.87084 0.46266,-1.10953 2.73951,-3.37428"
       id="path2712"
       inkscape:connector-curvature="0"
       sodipodi:nodetypes="cc" />
    <path
       style="fill:none;stroke:#000000;stroke-width:0.26458332px;stroke-linecap:butt;stroke-linejoin:miter;stroke-opacity:1"
       d="m 129.32505,156.51645 c -0.0931,-2.16291 0.30781,-3.91306 -0.86863,-7.3165"
       id="path2714"
       inkscape:connector-curvature="0"
       sodipodi:nodetypes="cc" />
    <path
       style="fill:none;stroke:#000000;stroke-width:0.26458332px;stroke-linecap:butt;stroke-linejoin:miter;stroke-opacity:1"
       d="m 134.22306,170.22141 c 1.8096,-4.18111 3.42694,-7.9434 1.91735,-13.43769"
       id="path2716"
       inkscape:connector-curvature="0"
       sodipodi:nodetypes="cc" />
    <path
       style="fill:none;stroke:#000000;stroke-width:0.26458332px;stroke-linecap:butt;stroke-linejoin:miter;stroke-opacity:1"
       d="m 150.76525,159.98363 -1.32292,-1.15755"
       id="path2722"
       inkscape:connector-curvature="0" />
    <path
       style="fill:#ffffff;stroke:#000000;stroke-width:0.26458332px;stroke-linecap:butt;stroke-linejoin:miter;stroke-opacity:1;fill-opacity:1"
       d="m 86.060454,167.1888 c -0.08627,-0.17229 5.138057,-1.39669 7.252419,0.0236 2.524125,-0.73123 5.372481,-0.52489 7.535897,-0.35435 3.75157,0.47429 6.5791,5.02475 5.85863,7.60677 -5.46626,-1.35523 -10.007119,-1.45595 -13.205542,-0.35435 -0.425407,-0.49441 -3.262936,-1.94162 -3.471492,-1.91606 -0.353743,0.21769 -3.584512,-0.92272 -4.158902,-2.40704 -0.773521,-2.3301 0.18899,-2.59859 0.18899,-2.59859 z"
       id="path2724"
       inkscape:connector-curvature="0"
       sodipodi:nodetypes="cccccccc" />
    <path
       style="fill:none;stroke:#000000;stroke-width:0.26458332px;stroke-linecap:butt;stroke-linejoin:miter;stroke-opacity:1"
       d="m 85.84784,169.81101 c 1.902968,-0.8358 3.365989,-2.19662 7.488654,-0.75595 2.611216,-1.42236 7.242786,-0.74133 7.937496,-0.3071 3.85428,2.82115 2.99895,3.50143 4.11049,5.50427"
       id="path2732"
       inkscape:connector-curvature="0"
       sodipodi:nodetypes="cccc" />
    <path
       style="fill:none;stroke:#000000;stroke-width:0.26458332px;stroke-linecap:butt;stroke-linejoin:miter;stroke-opacity:1"
       d="m 87.147134,170.25986 7.346912,2.85844"
       id="path2734"
       inkscape:connector-curvature="0"
       sodipodi:nodetypes="cc" />
    <path
       style="fill:none;stroke:#000000;stroke-width:0.26458332px;stroke-linecap:butt;stroke-linejoin:miter;stroke-opacity:1"
       d="m 104.10881,173.63802 -1.79538,-3.70889"
       id="path2748"
       inkscape:connector-curvature="0" />
    <path
       style="fill:none;stroke:#000000;stroke-width:0.26458332px;stroke-linecap:butt;stroke-linejoin:miter;stroke-opacity:1"
       d="m 101.74646,170.3071 1.74815,3.23642"
       id="path2750"
       inkscape:connector-curvature="0" />
    <path
       style="fill:none;stroke:#000000;stroke-width:0.26458332px;stroke-linecap:butt;stroke-linejoin:miter;stroke-opacity:1"
       d="m 99.998325,169.12593 2.693075,4.18136"
       id="path2752"
       inkscape:connector-curvature="0" />
    <path
       style="fill:none;stroke:#000000;stroke-width:0.26458332px;stroke-linecap:butt;stroke-linejoin:miter;stroke-opacity:1"
       d="m 99.313242,169.26767 2.527718,3.96875"
       id="path2754"
       inkscape:connector-curvature="0" />
    <path
       style="fill:none;stroke:#000000;stroke-width:0.26458332px;stroke-linecap:butt;stroke-linejoin:miter;stroke-opacity:1"
       d="m 97.919457,168.84244 3.023813,4.18137"
       id="path2756"
       inkscape:connector-curvature="0" />
    <path
       style="fill:none;stroke:#000000;stroke-width:0.26458332px;stroke-linecap:butt;stroke-linejoin:miter;stroke-opacity:1"
       d="m 97.163502,168.91332 2.787576,4.13411"
       id="path2758"
       inkscape:connector-curvature="0" />
    <path
       style="fill:none;stroke:#000000;stroke-width:0.26458332px;stroke-linecap:butt;stroke-linejoin:miter;stroke-opacity:1"
       d="m 95.935082,168.93694 2.905691,4.06324"
       id="path2760"
       inkscape:connector-curvature="0" />
    <path
       style="fill:none;stroke:#000000;stroke-width:0.26458332px;stroke-linecap:butt;stroke-linejoin:miter;stroke-opacity:1"
       d="m 95.226377,169.17317 2.551337,3.75614"
       id="path2762"
       inkscape:connector-curvature="0" />
    <path
       style="fill:none;stroke:#000000;stroke-width:0.26458332px;stroke-linecap:butt;stroke-linejoin:miter;stroke-opacity:1"
       d="m 94.423176,169.31492 2.527715,3.61439"
       id="path2764"
       inkscape:connector-curvature="0" />
    <path
       style="fill:none;stroke:#000000;stroke-width:0.26458332px;stroke-linecap:butt;stroke-linejoin:miter;stroke-opacity:1"
       d="m 93.549106,169.81101 2.504094,2.8112"
       id="path2766"
       inkscape:connector-curvature="0" />
    <path
       style="fill:none;stroke:#000000;stroke-width:0.26458332px;stroke-linecap:butt;stroke-linejoin:miter;stroke-opacity:1"
       d="m 88.068451,169.97637 6.44922,2.66946"
       id="path2772"
       inkscape:connector-curvature="0"
       sodipodi:nodetypes="cc" />
    <path
       style="fill:none;stroke:#000000;stroke-width:0.26458332px;stroke-linecap:butt;stroke-linejoin:miter;stroke-opacity:1"
       d="m 88.682662,169.57477 6.047621,2.38598"
       id="path2776"
       inkscape:connector-curvature="0" />
    <path
       style="fill:none;stroke:#000000;stroke-width:0.26458332px;stroke-linecap:butt;stroke-linejoin:miter;stroke-opacity:1"
       d="m 90.194568,169.31492 3.850632,1.9135"
       id="path2778"
       inkscape:connector-curvature="0" />
    <path
       style="fill:none;stroke:#000000;stroke-width:0.26458332px;stroke-linecap:butt;stroke-linejoin:miter;stroke-opacity:1"
       d="m 103.56547,169.12593 c 0.91741,0.66362 1.46738,1.61303 1.81901,2.7167"
       id="path2782"
       inkscape:connector-curvature="0"
       sodipodi:nodetypes="cc" />
    <path
       style="fill:#ffffff;stroke:#000000;stroke-width:0.26458332px;stroke-linecap:butt;stroke-linejoin:miter;stroke-opacity:1;fill-opacity:1"
       d="m 108.46131,218.70673 -0.35079,0.41761 0.0334,0.70158 1.05238,-0.0668 -0.26727,-0.45101 -0.13364,-0.41761 z"
       id="path2794"
       inkscape:connector-curvature="0" />
    <path
       style="fill:none;stroke:#000000;stroke-width:0.26458332px;stroke-linecap:butt;stroke-linejoin:miter;stroke-opacity:1"
       d="m 107.09156,218.32253 0.0334,0.3675"
       id="path2804"
       inkscape:connector-curvature="0" />
    <path
       style="fill:#ffffff;stroke:#000000;stroke-width:0.26458332px;stroke-linecap:butt;stroke-linejoin:miter;stroke-opacity:1;fill-opacity:1"
       d="m 107.07485,217.53743 -0.36749,-0.48443 0.33409,-0.30068 0.36749,0.40091 z"
       id="path2806"
       inkscape:connector-curvature="0" />
    <path
       style="fill:#ffffff;stroke:#000000;stroke-width:0.26458332px;stroke-linecap:butt;stroke-linejoin:miter;stroke-opacity:1;fill-opacity:1"
       d="m 99.22381,218.65662 0.83522,-0.71829 -1.002262,-1.10249 -0.350792,0.33409 -0.384199,1.00226 z"
       id="path2808"
       inkscape:connector-curvature="0" />
    <path
       style="fill:#ffffff;stroke:#000000;stroke-width:0.26458332px;stroke-linecap:butt;stroke-linejoin:miter;stroke-opacity:1;fill-opacity:1"
       d="m 99.040062,216.03404 0.601359,-0.43432 -0.584653,-0.61806 -0.517834,0.55124 0.133633,0.3675 z"
       id="path2810"
       inkscape:connector-curvature="0" />
    <path
       style="fill:#ffffff;stroke:#000000;stroke-width:0.26458332px;stroke-linecap:butt;stroke-linejoin:miter;stroke-opacity:1;fill-opacity:1"
       d="m 103.83421,209.08503 -0.41761,0.43431 -0.23386,0.3675 0.43432,0.38419 0.30067,0.0501 0.0668,-0.25057 0.18375,-0.11693 0.0501,-0.51783 z"
       id="path2816"
       inkscape:connector-curvature="0" />
    <path
       style="fill:#ffffff;stroke:#000000;stroke-width:0.26458332px;stroke-linecap:butt;stroke-linejoin:miter;stroke-opacity:1;fill-opacity:1"
       d="m 105.7051,210.98932 -0.20045,0.33409 -0.25057,0.0167 0.18375,0.3675 -0.0167,0.48443 0.88533,0.0334 0.0668,-0.38419 0.18375,-0.0334 0.0167,-0.31739 -0.25056,-0.0501 z"
       id="path2818"
       inkscape:connector-curvature="0" />
    <path
       style="fill:#ffffff;stroke:#000000;stroke-width:0.26458332px;stroke-linecap:butt;stroke-linejoin:miter;stroke-opacity:1;fill-opacity:1"
       d="m 99.240516,203.38885 -0.684879,0.25056 -0.651468,0.68488 -0.01669,0.98556 0.567947,0.48442 0.835218,-0.0835 0.551243,-0.7517 z"
       id="path2820"
       inkscape:connector-curvature="0" />
    <path
       style="fill:#ffffff;stroke:#000000;stroke-width:0.26458332px;stroke-linecap:butt;stroke-linejoin:miter;stroke-opacity:1;fill-opacity:1"
       d="m 102.01344,200.98342 0.0334,0.58465 0.25056,0.23386 0.55124,0.0167 -0.10022,-0.63477 z"
       id="path2822"
       inkscape:connector-curvature="0" />
    <path
       style="fill:#ffffff;stroke:#000000;stroke-width:0.26458332px;stroke-linecap:butt;stroke-linejoin:miter;stroke-opacity:1;fill-opacity:1"
       d="m 108.99585,201.26739 -0.31738,0.3842 0.31738,0.40091 0.50113,0.0334 0.28398,-0.35079 z"
       id="path2826"
       inkscape:connector-curvature="0" />
    <path
       style="fill:#ffffff;stroke:#000000;stroke-width:0.26458332px;stroke-linecap:butt;stroke-linejoin:miter;stroke-opacity:1;fill-opacity:1"
       d="m 104.80306,205.77757 0.3842,0.35079 0.43432,-0.40091 -0.11693,-0.48442 h -0.61807 z"
       id="path2832"
       inkscape:connector-curvature="0" />
    <path
       style="fill:#ffffff;stroke:#000000;stroke-width:0.26458332px;stroke-linecap:butt;stroke-linejoin:miter;stroke-opacity:1;fill-opacity:1"
       d="m 105.63828,203.2051 -0.43431,0.66817 0.23386,0.41761 0.68488,-0.0334 0.0835,-0.56795 z"
       id="path2834"
       inkscape:connector-curvature="0" />
    <path
       style="fill:#ffffff;stroke:#000000;stroke-width:0.26458332px;stroke-linecap:butt;stroke-linejoin:miter;stroke-opacity:1;fill-opacity:1"
       d="m 99.140289,212.32567 -0.367495,0.20045 0.01669,0.3675 0.283972,0.20045 0.384201,-0.25057 0.03341,-0.30067 z"
       id="path2836"
       inkscape:connector-curvature="0" />
    <path
       style="fill:#ffffff;stroke:#000000;stroke-width:0.26458332px;stroke-linecap:butt;stroke-linejoin:miter;stroke-opacity:1;fill-opacity:1"
       d="m 105.7051,207.41459 -0.13364,0.25057 -0.31738,0.0501 0.26727,0.58465 0.66817,-0.16704 z"
       id="path2838"
       inkscape:connector-curvature="0" />
    <path
       style="fill:#ffffff;stroke:#000000;stroke-width:0.26458332px;stroke-linecap:butt;stroke-linejoin:miter;stroke-opacity:1;fill-opacity:1"
       d="m 110.79992,205.67734 -0.28397,0.31738 h -0.41761 l 0.20045,0.50113 0.41761,-0.0167 0.0835,0.31738 0.48443,-0.45101 z"
       id="path2840"
       inkscape:connector-curvature="0" />
    <path
       style="fill:#ffffff;fill-opacity:1;stroke:#000000;stroke-width:0.26458332px;stroke-linecap:butt;stroke-linejoin:miter;stroke-opacity:1"
       d="m 102.48116,202.78749 -0.3842,0.18375 -0.43431,0.16704 0.75169,0.50113 z"
       id="path2844"
       inkscape:connector-curvature="0"
       sodipodi:nodetypes="ccccc" />
    <path
       style="fill:#ffffff;stroke:#000000;stroke-width:0.26458332px;stroke-linecap:butt;stroke-linejoin:miter;stroke-opacity:1;fill-opacity:1"
       d="m 104.23511,194.83622 -0.4176,0.55124 -0.3508,1.20272 0.96886,0.60135 1.20271,-0.7851 -0.20045,-1.23612 -0.88533,-0.50113 z"
       id="path2846"
       inkscape:connector-curvature="0" />
    <path
       style="fill:#ffffff;stroke:#000000;stroke-width:0.26458332px;stroke-linecap:butt;stroke-linejoin:miter;stroke-opacity:1;fill-opacity:1"
       d="m 109.43017,197.25835 -0.735,0.65147 -0.0167,0.71829 0.60135,0.4009 0.98556,-0.7851 z"
       id="path2848"
       inkscape:connector-curvature="0" />
    <path
       style="fill:none;stroke:#000000;stroke-width:0.26458332px;stroke-linecap:butt;stroke-linejoin:miter;stroke-opacity:1"
       d="m 129.27967,181.78813 -0.50791,0.80317"
       id="path2850"
       inkscape:connector-curvature="0" />
    <path
       style="fill:none;stroke:#000000;stroke-width:0.26458332px;stroke-linecap:butt;stroke-linejoin:miter;stroke-opacity:1"
       d="m 136.00678,172.65285 c -1.98136,-0.19692 -2.2519,1.86902 -2.76404,3.09585 -0.97538,2.26275 -1.20875,1.35095 -1.46216,2.73397 -0.55406,3.02389 1.81583,2.39266 2.63929,1.72055 1.54281,-1.52895 2.45099,-1.91552 2.88985,-5.39551 0.11136,-0.88304 0.0595,-1.94865 -1.30294,-2.15486 z"
       id="path2852"
       inkscape:connector-curvature="0"
       sodipodi:nodetypes="ccscsc" />
    <path
       style="fill:none;stroke:#000000;stroke-width:0.26458332px;stroke-linecap:butt;stroke-linejoin:miter;stroke-opacity:1"
       d="m 134.60676,170.94494 0.14175,0.51972"
       id="path2856"
       inkscape:connector-curvature="0" />
    <path
       style="fill:none;stroke:#000000;stroke-width:0.26458332px;stroke-linecap:butt;stroke-linejoin:miter;stroke-opacity:1"
       d="m 93.927082,153.69977 c 3.179626,-4.12164 5.854597,-4.00417 8.409968,-2.88206"
       id="path2858"
       inkscape:connector-curvature="0"
       sodipodi:nodetypes="cc" />
    <path
       style="fill:none;stroke:#000000;stroke-width:0.26458332px;stroke-linecap:butt;stroke-linejoin:miter;stroke-opacity:1"
       d="m 113.91257,150.95945 c 4.09474,-2.60254 8.18949,-2.10378 12.28423,0.7087"
       id="path2860"
       inkscape:connector-curvature="0"
       sodipodi:nodetypes="cc" />
    <path
       style="fill:#ffffff;fill-opacity:1;stroke:#000000;stroke-width:0.26458332px;stroke-linecap:butt;stroke-linejoin:miter;stroke-opacity:1"
       d="m 69.89098,180.73775 c -0.625408,1.20761 -0.341161,1.80879 -0.200451,2.50566 0.468011,1.2024 1.419467,1.99058 3.04019,2.57247 1.10392,0.3504 2.080234,-0.25625 3.006783,-1.23613 l 1.837478,-3.27405 c 1.353431,-0.89667 2.985819,-1.12384 3.942224,-2.97337 2.799359,-0.54396 7.388521,-3.11034 6.64833,-3.87541 -1.216728,-0.84655 -6.437618,2.0541 -7.450137,1.36975 -0.906875,-0.61295 5.112268,-0.81604 6.848782,-2.6894 0.148295,-1.37341 -6.72395,0.58786 -7.984677,-0.0167 -0.990464,-0.47496 6.613802,-1.13493 7.500249,-1.98781 0.528923,-1.78733 -6.896638,-0.75511 -8.402285,-0.61806 -0.822503,0.0749 10.518403,-1.38811 6.794414,-2.87014 -7.822108,-1.53784 -11.723514,2.25248 -12.674343,8.91711 z"
       id="path837"
       inkscape:connector-curvature="0"
       sodipodi:nodetypes="cccccccscscsccc" />
  </g>
</svg>
